<svg xmlns="http://www.w3.org/2000/svg" height="40" viewBox="0 -960 960 960" width="40" fill="#bdbdbd"><path d="M460.008-72.507q-94.53 0-161.015-65.245-66.486-65.245-66.486-159.581v-429.616q0-67.265 47.668-114.781 47.668-47.517 114.895-47.517 67.894 0 115.35 47.517 47.457 47.516 47.457 115.447v390.689q0 41.167-28.355 69.855-28.355 28.688-69.602 28.688-41.246 0-69.521-29.942-28.276-29.942-28.276-71.934v-389.356h52.804v391.356q0 19.757 13.047 33.534 13.046 13.777 32.043 13.777 18.996 0 32.026-13.443 13.03-13.444 13.03-32.535v-391.355q0-46.001-32-77.667-32.001-31.667-78.001-31.667-46 0-78 31.667-32 31.666-32 77.667v430.894q0 71.515 51.379 121.249 51.379 49.734 123.529 49.734 72.817 0 123.883-50.068 51.065-50.067 51.065-122.248v-430.895h52.724V-298q0 94.336-66.557 159.915-66.557 65.578-161.087 65.578Z"/></svg>