<svg xmlns="http://www.w3.org/2000/svg" height="40" viewBox="0 -960 960 960" width="40" fill="#828282"><path d="M192.725-410.117q-28.841 0-49.428-20.358-20.586-20.358-20.586-49.35 0-29.45 20.587-49.754t49.496-20.304q28.868 0 49.841 20.33 20.973 20.33 20.973 49.378 0 29.45-21.021 49.754t-49.862 20.304Zm287.45 0q-29.45 0-49.754-20.358t-20.304-49.35q0-29.45 20.358-49.754t49.35-20.304q29.45 0 49.754 20.33t20.304 49.378q0 29.45-20.33 49.754t-49.378 20.304Zm287.097 0q-29.403 0-50.142-20.358-20.738-20.358-20.738-49.35 0-29.45 20.857-49.754 20.856-20.304 50.144-20.304 29.288 0 49.781 20.33 20.492 20.33 20.492 49.378 0 29.45-20.612 49.754-20.611 20.304-49.782 20.304Z"/></svg>