<svg xmlns="http://www.w3.org/2000/svg" height="40" viewBox="0 -960 960 960" width="40" fill="#828282"><path d="m635.275-425.427-57.355-57.196q18.979-55.826-23.134-94.928-42.112-39.101-93.757-21.963l-55.602-55.761q16.442-9.283 35.519-13.67 19.076-4.388 39.054-4.388 72.333 0 122.833 50.5T653.333-500q0 19.659-4.641 39.467-4.642 19.809-13.417 35.106Zm133.768 133.579-49.985-49.637q43.979-33.348 77.149-73.837 33.17-40.49 52.141-84.678-50.478-107.428-147.913-170.381t-213.768-62.953q-37.667 0-75.258 6.428-37.591 6.427-61.743 15.87l-56.594-57.102q37-16.333 88.464-27.166Q433-806.138 483.333-806.138q146.783 0 266.83 83.123Q870.21-639.891 926.138-500q-24.841 62.812-65.073 115.696-40.232 52.884-92.022 92.456Zm36.566 232.906L641.276-220.848q-34.841 13.08-76.326 20.033-41.486 6.953-84.95 6.953-149.022 0-269.402-83.283Q90.218-360.427 33.862-500q19.935-52.014 54.587-100.859 34.652-48.844 81.841-91.641L50.42-812.559l48.819-49.644 753.109 753.189-46.739 50.072ZM220.833-641.848q-34.014 27.145-63.859 65.616-29.844 38.471-45.75 76.232 50.826 107.667 149.968 170.5 99.141 62.834 224.141 62.834 26.993 0 53.744-3.221 26.75-3.221 44.083-9.555l-54.667-55.334q-10.123 4.095-23.246 6.102-13.124 2.007-25.247 2.007-71.667 0-122.5-50.166Q306.667-427 306.667-500q0-12.551 1.888-25.127 1.887-12.576 5.742-23.366l-93.464-93.355Zm314.449 121.921Zm-133.325 66.615Z"/></svg>