<svg xmlns="http://www.w3.org/2000/svg" height="48" viewBox="0 -960 960 960" width="48" fill='#828282'><path d="M216.929-142q-31.416 0-53.172-21.757Q142-185.513 142-216.929q0-31.416 21.757-53.244Q185.513-292 216.929-292q31.416 0 53.244 21.827Q292-248.345 292-216.929t-21.827 53.172Q248.345-142 216.929-142Zm263.452 0Q450-142 427.5-163.757 405-185.513 405-216.929q0-31.416 22.119-53.244Q449.239-292 479.619-292 510-292 532.5-270.173q22.5 21.828 22.5 53.244t-22.119 53.172Q510.761-142 480.381-142Zm262.69 0q-31.416 0-53.244-21.757Q668-185.513 668-216.929q0-31.416 21.827-53.244Q711.655-292 743.071-292t53.172 21.827Q818-248.345 818-216.929t-21.757 53.172Q774.487-142 743.071-142ZM216.929-405q-31.416 0-53.172-22.119Q142-449.239 142-479.619 142-510 163.757-532.5q21.756-22.5 53.172-22.5 31.416 0 53.244 22.119Q292-510.761 292-480.381 292-450 270.173-427.5 248.345-405 216.929-405Zm263.452 0Q450-405 427.5-427.119q-22.5-22.12-22.5-52.5Q405-510 427.119-532.5q22.12-22.5 52.5-22.5Q510-555 532.5-532.881q22.5 22.12 22.5 52.5Q555-450 532.881-427.5q-22.12 22.5-52.5 22.5Zm262.69 0q-31.416 0-53.244-22.119Q668-449.239 668-479.619 668-510 689.827-532.5q21.828-22.5 53.244-22.5t53.172 22.119Q818-510.761 818-480.381 818-450 796.243-427.5 774.487-405 743.071-405ZM216.929-668q-31.416 0-53.172-21.827Q142-711.655 142-743.071t21.757-53.172Q185.513-818 216.929-818q31.416 0 53.244 21.757Q292-774.487 292-743.071q0 31.416-21.827 53.244Q248.345-668 216.929-668Zm263.452 0Q450-668 427.5-689.827 405-711.655 405-743.071t22.119-53.172Q449.239-818 479.619-818 510-818 532.5-796.243q22.5 21.756 22.5 53.172 0 31.416-22.119 53.244Q510.761-668 480.381-668Zm262.69 0q-31.416 0-53.244-21.827Q668-711.655 668-743.071t21.827-53.172Q711.655-818 743.071-818t53.172 21.757Q818-774.487 818-743.071q0 31.416-21.757 53.244Q774.487-668 743.071-668Z"/></svg>