<svg width="1340" height="176" viewBox="0 0 1340 176" fill="none" xmlns="http://www.w3.org/2000/svg">
<path fill-rule="evenodd" clip-rule="evenodd" d="M1010.25 0.704656C821.859 2.70544 767.994 4.00699 663.466 9.0877C555.143 14.3529 477.621 19.6308 354.618 30.1149C326.104 32.5453 295.572 34.8518 259.779 37.2789C128.294 46.1944 102.708 48.5701 60.2027 55.8066C39.1425 59.3928 20.9291 61.8746 10.721 62.5511C1.64526 63.1517 0 63.53 0 65.0152C0 66.3277 14.5154 67.4776 22.4548 66.7936C25.3 66.5493 33.0084 65.9503 39.5853 65.4642C46.1623 64.9773 60.6356 63.6706 71.7484 62.5603C97.9168 59.9446 110.481 59.1198 155.455 57.0651C231.06 53.6111 288.175 50.292 358.33 45.2753C384.184 43.4261 418.512 40.9713 434.614 39.8197C556.738 31.0845 705.913 23.2953 797.067 20.8952C907.684 17.9813 1251.09 15.4051 1245.29 17.5314C1242.99 18.3747 1203.69 24.6466 1180.14 27.9304C1158.5 30.9472 1122.35 35.2983 1077.88 40.2384C1056.78 42.582 1027.84 45.8254 1013.55 47.4462C959.874 53.5362 942.195 55.4249 911.699 58.3305C771.211 71.7142 678.412 83.3768 549.246 103.88C472.471 116.067 409.543 130.057 339.317 150.553C299.39 162.205 295.5 164.275 299.43 171.777C301.987 176.658 322.133 177.291 362.766 173.765C437.022 167.323 506.802 162.326 574.4 158.611C616.8 156.281 622.417 155.89 665.528 152.273C681.63 150.922 709.464 148.948 727.38 147.886L759.956 145.956L716.659 145.196C651.051 144.042 580.671 144.112 557.493 145.354C480.757 149.465 439.019 152.629 370.844 159.502C354.595 161.141 340.886 162.341 340.379 162.169C335.497 160.506 444.775 135.379 496.906 126.178C614.587 105.406 735.773 89.9082 922.008 71.8111C939.017 70.1582 973.16 66.5425 997.88 63.7768C1022.6 61.0103 1061.57 56.6549 1084.47 54.0964C1172.64 44.2509 1198.91 40.5838 1283.64 26.2919C1337.9 17.138 1338.19 17.0597 1339.67 11.0396C1341.3 4.42063 1336.95 1.41738 1324.5 0.558937C1312.66 -0.257381 1091.14 -0.154627 1010.25 0.704656ZM763.471 145.288C764.496 145.49 765.981 145.482 766.769 145.271C767.558 145.061 766.718 144.896 764.904 144.905C763.09 144.914 762.445 145.087 763.471 145.288Z" fill="black"/>
</svg>
