<svg xmlns="http://www.w3.org/2000/svg" height="40" viewBox="0 -960 960 960" width="40" fill="#828282"><path d="M239.898-70.669q-33.608 0-56.752-23.144-23.144-23.144-23.144-56.752v-397.229q0-33.807 23.144-56.852 23.144-23.045 56.752-23.045h46.309v-87.846q0-81.75 56.572-138.438 56.573-56.688 137.219-56.688 80.647 0 137.221 56.688t56.574 138.438v87.846h46.309q33.608 0 56.752 23.045 23.144 23.045 23.144 56.852v397.229q0 33.608-23.144 56.752-23.144 23.144-56.752 23.144H239.898ZM480.218-270q32.269 0 54.948-22.601 22.679-22.601 22.679-54.53 0-31.304-22.897-54.932-22.898-23.628-55.166-23.628-32.269 0-54.948 23.735-22.679 23.734-22.679 55.371t22.897 54.111q22.898 22.474 55.166 22.474Zm-126.423-357.69h252.41v-87.846q0-53.03-36.817-90.284-36.817-37.254-89.412-37.254-52.596 0-89.388 37.254-36.793 37.254-36.793 90.284v87.846Z"/></svg>