<svg width="256" height="25" viewBox="0 0 256 25" fill="none" xmlns="http://www.w3.org/2000/svg">
<path fill-rule="evenodd" clip-rule="evenodd" d="M113.667 5.86378C76.9548 9.85718 71.2801 10.492 65.6033 11.1071C59.1925 11.8017 52.779 12.4711 1.65922 17.9239C0.835468 18.0117 0.0964524 17.4152 0.00858539 16.5914C-0.0792817 15.7677 0.517272 15.0287 1.34103 14.9408C52.459 9.48821 58.8714 8.81892 65.281 8.12444C71.0659 7.49766 76.8485 6.85036 115.492 2.64762C117.297 2.45134 119.94 2.12768 122.815 1.77579C125.736 1.41812 128.896 1.03128 131.655 0.719397C134.336 0.416361 136.65 0.183018 137.858 0.141305C138.149 0.131273 138.459 0.128526 138.711 0.15683L138.719 0.157678C138.801 0.166697 139.108 0.200371 139.411 0.367451C139.566 0.453459 140.014 0.736054 140.165 1.34601C140.328 2.00903 140.011 2.49959 139.856 2.68832C139.697 2.88124 139.525 2.99419 139.448 3.04225C139.354 3.10102 139.265 3.14489 139.198 3.1757C139.062 3.23741 138.916 3.29029 138.779 3.3355C138.5 3.42767 138.13 3.5297 137.678 3.64269C128.957 5.8229 120.022 7.63623 111.099 9.44704C107.045 10.2697 102.994 11.0919 98.9664 11.9477C86.9289 14.5056 75.0437 17.375 63.6826 21.4835C63.9322 21.4646 64.185 21.4442 64.4419 21.4234L64.4735 21.4208C65.1661 21.3647 65.8902 21.3061 66.6119 21.2756C80.8564 20.6737 102.629 18.5597 115.703 17.2811C126.395 16.2355 137.199 14.8349 148.051 13.4281C166.534 11.0321 185.157 8.61802 203.602 7.90858C203.8 7.90097 203.955 7.89525 204.063 7.89218C204.116 7.89068 204.169 7.88946 204.215 7.88932C204.23 7.88928 204.249 7.88931 204.272 7.88975C204.284 7.88999 204.297 7.89035 204.311 7.89089C204.33 7.89164 204.362 7.8932 204.402 7.89693L204.404 7.89707C204.428 7.89938 204.527 7.90867 204.648 7.94032C204.696 7.95295 204.863 7.99729 205.05 8.11119C205.176 8.18814 205.814 8.61077 205.767 9.4737C205.728 10.1982 205.215 10.5612 205.141 10.613L205.138 10.6154C204.995 10.7171 204.867 10.7693 204.823 10.7869C204.721 10.8279 204.635 10.8484 204.612 10.8539L204.611 10.8541C204.575 10.8627 204.545 10.8686 204.527 10.8719C204.466 10.8834 204.403 10.8917 204.37 10.8959C204.288 10.9065 204.17 10.9201 204.038 10.9352L204.031 10.936C203.486 10.9987 202.471 11.1154 201.3 11.3074C200.987 11.3588 200.665 11.4151 200.341 11.4766C206.361 11.5621 212.424 11.4583 218.457 11.3227C224.135 11.1951 229.812 10.4164 235.572 9.62617C235.812 9.59324 236.052 9.56029 236.293 9.52736C242.267 8.70889 248.332 7.90747 254.395 7.90747C255.224 7.90747 255.895 8.57904 255.895 9.40747C255.895 10.2359 255.224 10.9075 254.395 10.9075C248.566 10.9075 242.696 11.6783 236.7 12.4996C236.441 12.535 236.183 12.5705 235.924 12.606C230.209 13.3903 224.378 14.1904 218.524 14.322C211.52 14.4793 204.42 14.5955 197.378 14.4194C197.319 14.4179 197.249 14.4166 197.171 14.415C196.664 14.4049 195.807 14.3879 195.115 14.2905C194.778 14.243 194.179 14.1433 193.706 13.8361C193.445 13.6662 192.979 13.2714 192.893 12.5735C192.838 12.1254 192.965 11.7569 193.119 11.4885C178.309 12.529 163.494 14.4515 148.667 16.3756C137.784 17.7879 126.894 19.201 115.995 20.2668C102.949 21.5427 81.0839 23.6667 66.7386 24.2729C66.0751 24.3009 65.3999 24.3556 64.688 24.4132L64.684 24.4136C63.9808 24.4705 63.2418 24.5303 62.5011 24.5609C61.0215 24.622 59.4359 24.5729 57.8662 24.1172C57.651 24.0547 56.9769 23.8294 56.6875 23.0886C56.3732 22.284 56.7941 21.6424 56.9395 21.4497C57.1224 21.2072 57.3444 21.0286 57.4967 20.9164C57.6666 20.7914 57.8511 20.6764 58.0272 20.575C58.7129 20.1803 59.61 19.7999 60.0921 19.6163C72.4324 14.9152 85.3703 11.7698 98.3429 9.01323C102.43 8.14481 106.513 7.31619 110.583 6.4903C111.612 6.28148 112.64 6.07284 113.667 5.86378ZM59.244 23.3569C59.2441 23.3567 59.246 23.355 59.25 23.3518C59.246 23.3554 59.2439 23.3571 59.244 23.3569Z" fill="black"/>
</svg>
