<svg width="337" height="60" viewBox="0 0 337 60" fill="none" xmlns="http://www.w3.org/2000/svg">
<path fill-rule="evenodd" clip-rule="evenodd" d="M130.249 9.03174C101.95 10.7664 73.8276 12.4903 46.1314 13.6016C45.3036 13.6349 44.6057 12.9908 44.5724 12.163C44.5392 11.3352 45.1833 10.6373 46.0111 10.6041C73.5684 9.49828 101.611 7.77951 129.866 6.04769C196.379 1.97104 264.072 -2.17795 329.394 1.42605C331.091 1.51965 332.41 1.63898 333.365 1.78718C333.84 1.86082 334.266 1.94753 334.62 2.05556C334.9 2.14096 335.407 2.31422 335.782 2.71078C336.008 2.95092 336.255 3.34958 336.252 3.88317C336.25 4.39556 336.018 4.7708 335.838 4.98415C335.521 5.3606 335.083 5.57473 334.82 5.69176C334.206 5.96424 333.313 6.21572 332.269 6.45681C328.04 7.43314 319.644 8.60533 309.676 9.80883C295.067 11.5727 276.867 13.4273 262.917 14.849C257.78 15.3724 253.219 15.8372 249.626 16.2171C210.836 20.3183 133.431 28.6218 75.4778 35.8993C46.4797 39.5408 22.4179 42.9175 10.4853 45.377C9.12023 45.6583 7.93031 45.9245 6.91992 46.174C9.42799 46.3502 13.0147 46.445 17.8055 46.445C67.5695 46.445 117.521 43.3219 167.443 40.2006C188.843 38.8626 210.238 37.525 231.611 36.4338C235.676 36.0546 239.743 35.7008 243.812 35.3766C252.56 34.6795 260.847 34.3618 269.548 34.2065C270.116 34.1963 270.992 34.0859 272.05 33.9311C272.326 33.8907 272.613 33.8476 272.904 33.8038C273.682 33.6869 274.492 33.565 275.215 33.4776C275.718 33.417 276.209 33.3689 276.649 33.3497C277.065 33.3316 277.535 33.3336 277.951 33.4181C278.157 33.4598 278.456 33.5419 278.747 33.7311C279.067 33.9397 279.427 34.3197 279.526 34.9003C279.616 35.4308 279.441 35.8647 279.3 36.1172C279.156 36.3778 278.966 36.595 278.795 36.7669C276.929 38.6323 274.391 38.6446 272.311 38.4273C271.591 38.3521 270.826 38.2355 270.107 38.1256C269.778 38.0754 269.458 38.0266 269.156 37.9838C268.14 37.8398 267.24 37.7491 266.441 37.7873L265.024 37.8551C259.281 38.1302 253.534 38.4055 247.787 38.6617C242.469 38.8988 237.147 39.1552 231.821 39.4271C208.395 41.6134 185.01 44.643 161.659 47.684C161.109 47.7557 159.553 47.8671 157.327 48.0264C155.834 48.1334 154.039 48.2619 152.044 48.4144C147.015 48.7991 140.593 49.344 134.126 50.0991C127.65 50.8553 121.171 51.8177 116.014 53.0304C113.433 53.6375 111.229 54.2969 109.54 55.0051C108.819 55.3072 108.233 55.6019 107.766 55.8816C107.933 55.8985 108.104 55.9142 108.278 55.9294C108.387 55.939 108.5 55.9485 108.614 55.9581C109.031 55.9932 109.461 56.0295 109.796 56.0746C117.468 57.1073 129.253 56.4972 136.789 56.1071C137.079 56.0921 137.362 56.0774 137.639 56.0632C167.121 54.5457 196.597 51.8063 226.01 48.929C230.249 48.5144 233.295 48.2052 235.413 47.9831C236.565 47.8273 237.669 47.6972 238.467 47.6108C238.916 47.5622 239.277 47.5264 239.499 47.5076L239.505 47.507C239.582 47.5006 239.725 47.4884 239.834 47.4894C239.854 47.4896 239.906 47.4903 239.971 47.4966C239.998 47.4995 240.057 47.508 240.106 47.5165C240.12 47.5189 240.134 47.5214 240.146 47.5237C240.236 47.5461 240.499 47.6475 240.663 47.7428C240.992 48.0405 241.33 49.0347 241.183 49.6408C241.122 49.7388 241.04 49.8419 240.953 49.9375C241.529 49.9403 242.133 49.9418 242.766 49.9418C243.594 49.9418 244.266 50.6134 244.266 51.4418C244.266 52.2702 243.594 52.9418 242.766 52.9418C238.219 52.9418 235.115 52.8675 233.102 52.7417C232.1 52.6792 231.33 52.6017 230.771 52.5057C230.495 52.4584 230.223 52.3986 229.982 52.3156C229.862 52.2739 229.713 52.2144 229.562 52.1273C229.428 52.0499 229.206 51.9021 229.019 51.6473C228.172 51.7312 227.268 51.8203 226.302 51.9148C196.887 54.7923 167.35 57.5379 137.793 59.0592C137.484 59.0751 137.165 59.0917 136.838 59.1087C129.381 59.4955 117.356 60.1193 109.396 59.0478C109.142 59.0136 108.818 58.9862 108.419 58.9524C108.292 58.9417 108.158 58.9304 108.016 58.918C107.464 58.8698 106.823 58.8072 106.244 58.7033C105.737 58.6124 104.998 58.4478 104.445 58.0505C104.136 57.8279 103.728 57.4178 103.618 56.77C103.508 56.1216 103.756 55.5858 103.999 55.2409C104.893 53.9706 106.537 53.0109 108.38 52.2384C110.286 51.4395 112.669 50.7354 115.327 50.1101C120.651 48.8581 127.263 47.8801 133.778 47.1194C140.302 46.3576 146.769 45.8091 151.815 45.4232C153.979 45.2576 155.86 45.1233 157.371 45.0154C159.429 44.8684 160.802 44.7704 161.272 44.7092C166.823 43.9862 172.38 43.2633 177.942 42.552C174.552 42.7629 171.162 42.9749 167.771 43.1868C117.782 46.3116 67.6536 49.445 17.8055 49.445C12.9172 49.445 9.211 49.3472 6.59109 49.1581C5.28389 49.0638 4.21563 48.9446 3.39227 48.796C2.98075 48.7217 2.60467 48.6355 2.27755 48.5322C1.9702 48.435 1.61192 48.2942 1.30114 48.0694C0.999091 47.851 0.497664 47.3638 0.500008 46.5727C0.502174 45.8419 0.942336 45.3666 1.17508 45.1572C1.65103 44.7289 2.37398 44.4182 3.0595 44.1711C4.53992 43.6374 6.87358 43.0584 9.87971 42.4387C21.9488 39.9511 46.1323 36.5609 75.104 32.9227C133.09 25.641 210.522 17.3347 249.31 13.2338C252.923 12.8518 257.498 12.3856 262.646 11.861C276.592 10.4398 294.737 8.59065 309.317 6.83045C316.645 5.94571 323.019 5.08932 327.494 4.32763C262.892 0.900863 196.094 4.99553 130.249 9.03174ZM333.858 4.96578C333.857 4.96591 333.85 4.96319 333.838 4.95708C333.852 4.96258 333.858 4.96565 333.858 4.96578ZM333.708 2.89831C333.713 2.89464 333.716 2.89288 333.716 2.89292C333.716 2.89296 333.714 2.89478 333.708 2.89831ZM231.074 51.8484C231.073 51.8482 231.08 51.8449 231.094 51.8388C231.081 51.8455 231.074 51.8485 231.074 51.8484Z" fill="black"/>
</svg>
